<?xml version="1.0" standalone="no"?>
<!DOCTYPE svg PUBLIC "-//W3C//DTD SVG 20010904//EN"
 "http://www.w3.org/TR/2001/REC-SVG-20010904/DTD/svg10.dtd">
<svg version="1.0" xmlns="http://www.w3.org/2000/svg"
 width="1100.000000pt" height="1100.000000pt" viewBox="0 0 1100.000000 1100.000000"
 preserveAspectRatio="xMidYMid meet">
<metadata>
Created by potrace 1.11, written by Peter Selinger 2001-2013
</metadata>
<g transform="translate(0.000000,1100.000000) scale(0.100000,-0.100000)"
fill="#000000" stroke="none">
<path d="M5306 10599 c-123 -30 -258 -101 -352 -186 -18 -15 -58 -50 -89 -78
-32 -27 -63 -54 -69 -60 -6 -5 -58 -50 -116 -100 -58 -49 -110 -94 -116 -100
-13 -12 -99 -87 -213 -184 -46 -40 -89 -77 -96 -84 -6 -7 -34 -31 -61 -54 -27
-23 -60 -51 -74 -63 -14 -12 -49 -43 -79 -68 -30 -26 -59 -52 -65 -57 -6 -6
-94 -82 -196 -169 -102 -88 -192 -167 -201 -175 -9 -9 -38 -34 -64 -56 -27
-22 -56 -47 -64 -55 -9 -9 -45 -40 -81 -70 -36 -30 -70 -59 -76 -65 -6 -5 -39
-35 -74 -65 -35 -30 -68 -60 -74 -65 -6 -6 -45 -39 -86 -74 -41 -35 -77 -67
-80 -70 -3 -3 -34 -31 -70 -61 -36 -30 -67 -57 -70 -60 -3 -3 -36 -32 -75 -65
-38 -33 -72 -62 -75 -65 -3 -3 -36 -32 -75 -65 -38 -33 -72 -62 -75 -65 -3 -3
-70 -62 -150 -130 -80 -69 -150 -129 -156 -135 -10 -10 -118 -104 -154 -135
-94 -80 -118 -101 -135 -117 -11 -10 -49 -43 -85 -73 -36 -30 -67 -57 -70 -60
-3 -3 -39 -34 -80 -70 -41 -36 -77 -67 -80 -70 -3 -3 -70 -61 -150 -130 -166
-143 -198 -171 -214 -185 -6 -6 -92 -80 -191 -165 -99 -85 -182 -157 -185
-160 -3 -3 -106 -93 -230 -200 -124 -107 -249 -219 -278 -249 -105 -109 -187
-277 -210 -431 -4 -30 -7 -1153 -6 -2495 l1 -2440 21 -84 c22 -82 98 -251 114
-251 4 0 8 -6 8 -13 0 -16 120 -142 176 -185 65 -50 193 -110 285 -134 84 -21
84 -21 1269 -22 l1185 0 84 23 c382 101 646 429 636 788 -4 137 -25 223 -82
338 -97 196 -253 331 -474 407 l-94 33 -605 3 c-508 2 -614 5 -660 18 -125 35
-227 140 -257 264 -10 44 -13 355 -13 1555 0 1659 -3 1558 65 1701 52 107 96
156 292 325 98 84 180 156 183 159 3 3 39 34 80 70 41 36 77 67 80 70 3 3 37
32 75 65 39 33 72 62 75 65 3 3 34 30 70 60 36 30 69 60 75 66 5 5 57 50 115
100 58 49 110 94 116 99 6 6 39 35 74 65 35 30 68 60 74 65 6 6 40 35 76 65
36 30 67 57 70 60 3 3 73 64 155 135 83 71 157 136 166 144 9 9 25 23 35 32
26 21 312 268 349 301 17 15 40 35 51 45 12 10 48 41 80 68 47 41 303 263 429
374 17 14 62 53 100 86 39 33 72 62 75 65 3 3 70 61 150 130 80 69 159 137
175 153 43 40 126 94 188 122 87 40 171 55 287 51 161 -6 274 -51 410 -165 36
-30 67 -57 70 -60 3 -3 37 -33 75 -66 39 -33 72 -62 75 -65 3 -3 36 -32 75
-65 62 -53 116 -100 149 -130 6 -5 40 -35 76 -65 36 -30 70 -59 76 -65 6 -5
37 -32 69 -60 66 -57 70 -60 155 -135 35 -30 74 -64 86 -75 12 -11 44 -39 71
-61 26 -23 58 -50 69 -60 12 -11 46 -40 75 -66 30 -25 65 -56 79 -68 14 -12
49 -43 79 -68 30 -26 59 -51 65 -57 40 -36 107 -94 132 -115 41 -34 166 -143
180 -155 6 -5 39 -35 74 -65 35 -30 87 -75 115 -100 28 -25 65 -56 81 -70 48
-41 248 -214 260 -225 6 -5 37 -32 69 -60 32 -27 82 -70 110 -95 28 -25 78
-68 110 -96 97 -83 239 -207 251 -218 6 -6 35 -31 64 -55 29 -25 58 -50 64
-55 6 -6 43 -38 81 -71 38 -33 83 -71 99 -85 129 -111 194 -205 243 -350 17
-52 18 -125 20 -1465 1 -1175 -1 -1421 -13 -1475 -37 -173 -170 -346 -324
-422 -146 -72 -120 -71 -1025 -70 -445 0 -834 2 -864 6 -233 27 -445 160 -578
363 -29 44 -53 84 -53 87 0 3 -9 25 -19 49 -11 23 -28 74 -38 112 -16 65 -18
141 -19 1103 -1 577 2 1047 7 1064 16 56 58 105 109 127 46 20 65 21 516 21
450 1 469 2 503 21 101 56 115 200 27 270 -11 9 -33 27 -47 40 -14 13 -68 63
-120 111 -52 47 -103 95 -115 105 -12 10 -68 61 -125 114 -57 53 -116 107
-130 120 -47 42 -223 204 -239 219 -16 15 -204 187 -294 270 -27 25 -64 59
-81 75 -29 27 -90 83 -295 270 -36 33 -70 64 -76 70 -6 5 -55 51 -109 100 -55
50 -108 99 -119 111 -74 73 -207 99 -316 60 -56 -20 -100 -53 -215 -163 -41
-38 -233 -215 -265 -243 -9 -8 -59 -54 -111 -102 -105 -96 -107 -98 -244 -223
-54 -49 -112 -103 -130 -120 -17 -16 -54 -50 -81 -75 -124 -112 -269 -245
-274 -251 -3 -3 -59 -54 -125 -115 -65 -60 -126 -116 -135 -124 -9 -8 -58 -53
-110 -100 -182 -166 -208 -193 -219 -234 -13 -49 1 -111 33 -149 49 -56 55
-57 556 -57 502 0 502 0 563 -58 66 -62 61 18 63 -1122 1 -921 5 -1178 20
-1253 2 -12 7 -42 10 -67 12 -91 55 -267 98 -396 150 -448 446 -857 831 -1148
33 -25 65 -49 70 -54 33 -27 215 -132 314 -182 258 -128 538 -209 831 -237 99
-10 3243 -9 3297 0 268 48 524 264 608 512 51 148 48 -11 49 2609 1 2530 1
2509 -40 2626 -23 66 -74 170 -105 213 -51 70 -118 136 -295 287 -16 14 -78
68 -139 120 -60 52 -121 105 -135 117 -57 49 -94 81 -280 243 -47 41 -115 100
-150 130 -35 30 -84 73 -110 95 -64 56 -160 139 -190 165 -14 12 -50 43 -80
68 -30 26 -72 63 -95 83 -22 20 -53 47 -69 60 -16 13 -41 35 -56 49 -30 27
-48 43 -155 135 -38 33 -75 65 -81 70 -6 6 -37 33 -69 60 -32 28 -63 55 -69
60 -6 6 -78 69 -161 139 -82 71 -177 153 -210 182 -33 29 -70 61 -81 71 -27
23 -121 104 -154 133 -38 32 -130 113 -154 133 -11 11 -45 40 -75 65 -30 26
-62 54 -71 62 -9 8 -43 37 -75 65 -33 27 -80 68 -105 91 -25 23 -61 55 -80 70
-19 16 -40 33 -46 39 -6 5 -35 31 -65 57 -30 25 -65 56 -79 68 -14 12 -49 43
-79 68 -30 26 -62 54 -71 62 -9 8 -45 40 -81 70 -35 30 -66 57 -69 60 -3 3
-36 32 -75 65 -38 33 -88 76 -110 96 -22 20 -56 50 -75 65 -19 16 -40 33 -46
39 -6 5 -39 35 -74 65 -35 30 -68 60 -74 65 -6 6 -74 64 -151 130 -77 66 -145
124 -151 130 -6 5 -37 33 -69 60 -74 64 -80 70 -153 133 -133 116 -233 176
-360 214 -99 30 -300 33 -406 7z"/>
</g>
</svg>
